<svg xmlns="http://www.w3.org/2000/svg" width="200.856" height="148" viewBox="0 0 200.856 148">
  <g id="그룹_18526" data-name="그룹 18526" transform="translate(-12835 4318)">
    <g id="hnt_logo" transform="translate(12835.003 -4318)">
      <path id="패스_10" data-name="패스 10" d="M25.1,0s-52.452,16.473-5.714,56.488c0,0,1.2,1.04,3.578,2.766l1.466-7.929C2.278,32.717-.268,10.9,25.1,0Z" transform="translate(-0.001)" fill="#06588f"/>
      <path id="패스_12" data-name="패스 12" d="M63.46,104.056H80.8l.6-3.31c-5.99-1.852-11.428-3.838-16.307-5.856Z" transform="translate(-13.443 -20.101)" fill="#06588f"/>
      <path id="패스_13" data-name="패스 13" d="M48.206,57.429H62.393l-2.979,16.3A163.785,163.785,0,0,0,75.69,79.758l9.9-54.51H68.249L63.543,51.005H49.356L54.038,25.24H36.7L31,56.672a103.25,103.25,0,0,0,15.417,10.6Z" transform="translate(-6.569 -5.347)" fill="#06588f"/>
      <path id="패스_14" data-name="패스 14" d="M23.45,99.872H40.79l2.8-15.2A126.6,126.6,0,0,1,27.943,75.21Z" transform="translate(-4.967 -15.932)" fill="#06588f"/>
      <path id="패스_15" data-name="패스 15" d="M111.482,47.5l14.51,33.379q8.441,1.056,17.45,1.49l10.6-58.324H148.21l-7.92,43.746L120.932,24H109.9l-9.46,52.082c1.829.473,3.7.914,5.588,1.34Z" transform="translate(-21.277 -5.084)" fill="#717171"/>
      <path id="패스_16" data-name="패스 16" d="M216.377,46.09c.4.914,19.168,44.326-74.316,40.662a207.549,207.549,0,0,1-53.816-8.969L87.11,84.024c17.34,5.367,39.353,9.553,66.048,9.789C229.776,94.483,221.083,56.533,216.377,46.09Z" transform="translate(-18.454 -9.763)" fill="#06588f"/>
      <path id="패스_17" data-name="패스 17" d="M221.263,24l-1.143,6.455H205.4L194.9,88.086H176.511L187.017,30.44H172.2L173.367,24Z" transform="translate(-36.479 -5.084)" fill="#06588f"/>
    </g>
    <text id="사람과기술" transform="translate(12847 -4180)" fill="#fff" font-size="41" font-family="Pretendard-Medium, Pretendard" font-weight="500"><tspan x="0" y="0">사람과기술</tspan></text>
  </g>
</svg>
