<svg xmlns="http://www.w3.org/2000/svg" width="223.813" height="35.438" viewBox="0 0 223.813 35.438">
  <g id="그룹_18527" data-name="그룹 18527" transform="translate(-10811.688 103.719)">
    <path id="패스_2" data-name="패스 2" d="M279.164,49.817a47.794,47.794,0,0,1-2.485-4.536,14.581,14.581,0,0,1-1.329-6.466,14.733,14.733,0,0,1,1.329-6.489,47.783,47.783,0,0,1,2.485-4.536h1.572a25.681,25.681,0,0,0-2.456,5.762,19.392,19.392,0,0,0,.01,10.513,25.681,25.681,0,0,0,2.456,5.762Z" transform="translate(10627.83 -122.275)"/>
    <path id="패스_3" data-name="패스 3" d="M305.486,45.4v6.955H303.3V45.4H294.78V43.517h19.2V45.4Zm1.864-7.785a11.3,11.3,0,0,0,5.466,2.625l-1.462,1.615a14,14,0,0,1-4.024-1.728,8.9,8.9,0,0,1-2.937-2.658,9.464,9.464,0,0,1-2.681,2.569,12.923,12.923,0,0,1-4.28,1.821l-1.462-1.615a10.493,10.493,0,0,0,5.446-2.582,7.253,7.253,0,0,0,1.821-2.625h-6.187V33.13h14.663v1.907h-6.177a6.963,6.963,0,0,0,1.8,2.582Z" transform="translate(10614.856 -125.84)"/>
    <path id="패스_4" data-name="패스 4" d="M357.819,44.075a19.111,19.111,0,0,0,.007-10.493,25.213,25.213,0,0,0-2.476-5.762h1.592a47.727,47.727,0,0,1,2.489,4.536,14.638,14.638,0,0,1,1.329,6.489,14.487,14.487,0,0,1-1.329,6.466,47.727,47.727,0,0,1-2.489,4.536H355.35a25.215,25.215,0,0,0,2.469-5.772Z" transform="translate(10574.412 -122.295)"/>
    <path id="패스_5" data-name="패스 5" d="M385.5,46.939a9.258,9.258,0,0,1-2.824-2.376,13.326,13.326,0,0,1-2.326-3.625,10.023,10.023,0,0,1-2.093,3.615,12.627,12.627,0,0,1-3.054,2.794l-1.748-1.432a10.634,10.634,0,0,0,4.386-4.456,14.2,14.2,0,0,0,1.352-6.386v-3.16h2.293v3.16a12.188,12.188,0,0,0,1.386,6.137,11.726,11.726,0,0,0,4.09,4.094ZM390.812,30.8v8.041h2.9v1.994h-2.9V50.8h-2.183v-20Z" transform="translate(10562.326 -124.285)"/>
    <path id="패스_6" data-name="패스 6" d="M447.809,41.642q-1.994.14-3.841.183l-4.908.047V35.96h7.33V33.754h-7.33V31.863h9.513V37.8H441.22v2.183l3.579-.023c.944,0,2.027-.073,3.24-.169s2.156-.193,2.828-.286v1.841C450.151,41.453,449.135,41.553,447.809,41.642Zm-6.775,8.935V43.6h13.484v6.978Zm11.3-5.071h-9.124v3.16h9.124Zm2.18-7.706v4.841h-2.18V30.8h2.18v5.024h2.728V37.8Z" transform="translate(10518.518 -124.285)"/>
    <path id="패스_7" data-name="패스 7" d="M505.743,47.065q-3.044.239-7.257.239H496.16V45.394h3.712V39.05h2.16v6.313q1.352,0,4.147-.216t3.552-.326v1.887Q508.783,46.816,505.743,47.065Zm1.994-9.367q-.332,2.658-.721,4.762h-2.16c.03-.12.169-1.1.425-2.931a37.772,37.772,0,0,0,.405-4.522h-8.47V33.1h10.826a35.341,35.341,0,0,1-.306,4.6Zm5.061-6.9v8.48h2.861v1.954H512.8V50.8h-2.18v-20Z" transform="translate(10480.391 -124.285)"/>
    <path id="패스_8" data-name="패스 8" d="M566.29,40.871a14.138,14.138,0,0,1-6.732,6.453L557.92,46a12.672,12.672,0,0,0,6.091-5.386,15.2,15.2,0,0,0,1.964-5.649H559.08V33.05h9.4A17.7,17.7,0,0,1,566.29,40.871Zm6.4,9.932v-20h2.2v20Z" transform="translate(10439.152 -124.285)"/>
    <path id="패스_9" data-name="패스 9" d="M626.559,40.715v1.751H632.5V47.34H620.625v1.389h12.351v1.728H618.269V45.616h11.892V44.2H618.269V42.479H624.2V40.715H615.78V38.93h19.2v1.784Zm-4.114-4.237a10.021,10.021,0,0,1-4.2,1.329l-1.266-1.592q4.366-.665,5.8-2.386a5.076,5.076,0,0,0,1.442-2.545V30.62h2.289v.665a4.586,4.586,0,0,0,1.329,2.4q1.329,1.582,5.921,2.532L632.5,37.807a11.855,11.855,0,0,1-4.18-1.455,7.653,7.653,0,0,1-2.957-2.569A6.5,6.5,0,0,1,622.446,36.478Z" transform="translate(10400.518 -124.164)"/>
    <path id="패스_10" data-name="패스 10" d="M10.584,0S-11.529,6.945,8.175,23.814c0,0,.505.439,1.509,1.166l.618-3.343C.961,13.793-.112,4.6,10.584,0Z" transform="translate(10811.687 -103.719)" fill="#06588f"/>
    <path id="패스_11" data-name="패스 11" d="M249.84,52.92Z" transform="translate(10644.863 -139.055)"/>
    <path id="패스_12" data-name="패스 12" d="M63.46,98.754h7.31l.253-1.4c-2.525-.781-4.818-1.618-6.875-2.469Z" transform="translate(10769.313 -167.079)" fill="#06588f"/>
    <path id="패스_13" data-name="패스 13" d="M38.254,38.81h5.981l-1.256,6.872a69.053,69.053,0,0,0,6.862,2.542l4.173-22.98H46.7L44.72,36.1H38.739L40.712,25.24H33.4L31,38.491a43.529,43.529,0,0,0,6.5,4.469Z" transform="translate(10790.988 -120.572)" fill="#06588f"/>
    <path id="패스_14" data-name="패스 14" d="M23.45,85.607h7.31l1.18-6.41a53.373,53.373,0,0,1-6.6-3.987Z" transform="translate(10796.029 -153.938)" fill="#06588f"/>
    <path id="패스_15" data-name="패스 15" d="M105.1,33.905l6.117,14.072q3.559.445,7.357.628l4.469-24.589h-2.459L117.24,42.461,109.079,24h-4.652L100.44,45.957c.771.2,1.558.385,2.356.565Z" transform="translate(10744.621 -119.744)" fill="#717171"/>
    <path id="패스_16" data-name="패스 16" d="M141.607,46.09c.169.385,8.081,18.687-31.331,17.142a87.5,87.5,0,0,1-22.688-3.781l-.478,2.632a96.809,96.809,0,0,0,27.845,4.127C147.256,66.492,143.591,50.493,141.607,46.09Z" transform="translate(10753.522 -134.494)" fill="#06588f"/>
    <path id="패스_17" data-name="패스 17" d="M192.884,24l-.482,2.721H186.2l-4.426,24.3h-7.752l4.429-24.3H172.2L172.692,24Z" transform="translate(10696.705 -119.744)" fill="#06588f"/>
  </g>
</svg>
